<?xml version="1.0" encoding="UTF-8"?>
<!DOCTYPE svg PUBLIC "-//W3C//DTD SVG 1.1//EN" "http://www.w3.org/Graphics/SVG/1.1/DTD/svg11.dtd">
<svg xmlns="http://www.w3.org/2000/svg" version="1.1" width="302px" height="172px" style="shape-rendering:geometricPrecision; text-rendering:geometricPrecision; image-rendering:optimizeQuality; fill-rule:evenodd; clip-rule:evenodd" xmlns:xlink="http://www.w3.org/1999/xlink">
<g><path style="opacity:1" fill="#453098" d="M 140.5,-0.5 C 143.833,-0.5 147.167,-0.5 150.5,-0.5C 150.5,6.83333 150.5,14.1667 150.5,21.5C 130.98,23.8729 121.814,34.8729 123,54.5C 128.664,72.5853 140.83,79.7519 159.5,76C 171.115,70.9318 177.448,62.0985 178.5,49.5C 178.833,49.5 179.167,49.5 179.5,49.5C 186.5,49.5 193.5,49.5 200.5,49.5C 198.035,80.2994 181.368,97.2994 150.5,100.5C 119.635,97.3028 102.969,80.3028 100.5,49.5C 101.054,28.8845 110.388,13.7178 128.5,4C 132.61,2.48522 136.61,0.985224 140.5,-0.5 Z"/></g>
<g><path style="opacity:1" fill="#fb832d" d="M 179.5,49.5 C 179.167,49.5 178.833,49.5 178.5,49.5C 171.167,49.5 163.833,49.5 156.5,49.5C 156.5,42.1667 156.5,34.8333 156.5,27.5C 164.167,27.5 171.833,27.5 179.5,27.5C 179.5,34.8333 179.5,42.1667 179.5,49.5 Z"/></g>
<g><path style="opacity:0.922" fill="#9d9d9d" d="M 206.5,112.5 C 210.97,111.514 215.637,111.181 220.5,111.5C 220.216,113.415 220.549,115.081 221.5,116.5C 221.44,117.043 221.107,117.376 220.5,117.5C 219.548,115.955 219.215,114.288 219.5,112.5C 215.167,112.5 210.833,112.5 206.5,112.5 Z"/></g>
<g><path style="opacity:1" fill="#3a3a3a" d="M 33.5,151.5 C 35.1765,150.817 35.8432,149.483 35.5,147.5C 34.1667,147.5 32.8333,147.5 31.5,147.5C 29.076,147.808 26.7427,147.474 24.5,146.5C 25.4259,142.906 25.7592,139.24 25.5,135.5C 33.4792,134.776 41.4792,134.442 49.5,134.5C 50.5815,143.465 50.7481,152.465 50,161.5C 36.7552,172.341 22.9219,173.174 8.5,164C 3.14926,158.472 0.149261,151.972 -0.5,144.5C -0.5,143.833 -0.5,143.167 -0.5,142.5C 4.31716,116.503 19.4838,107.17 45,114.5C 45.5958,119.88 45.2625,125.213 44,130.5C 34.7192,126.597 27.0525,128.597 21,136.5C 18.3538,147.666 22.5205,152.666 33.5,151.5 Z"/></g>
<g><path style="opacity:1" fill="#3a3a3a" d="M 248.5,166.5 C 241.167,166.5 233.833,166.5 226.5,166.5C 226.5,164.833 226.5,163.167 226.5,161.5C 226.93,153.81 227.597,146.143 228.5,138.5C 227.837,135.194 227.337,131.861 227,128.5C 225.688,126.342 224.022,126.009 222,127.5C 220.908,130.044 220.241,132.711 220,135.5C 219.667,146.167 219.333,156.833 219,167.5C 212.256,168.479 205.422,168.812 198.5,168.5C 199.342,149.84 200.008,131.173 200.5,112.5C 202.5,112.5 204.5,112.5 206.5,112.5C 210.833,112.5 215.167,112.5 219.5,112.5C 219.215,114.288 219.548,115.955 220.5,117.5C 221.107,117.376 221.44,117.043 221.5,116.5C 225.432,111.877 230.432,110.377 236.5,112C 242.164,114.332 245.664,118.499 247,124.5C 249.608,138.422 250.108,152.422 248.5,166.5 Z"/></g>
<g><path style="opacity:1" fill="#3a3a3a" d="M 301.5,157.5 C 301.5,158.5 301.5,159.5 301.5,160.5C 289.537,171.319 276.204,173.153 261.5,166C 249.534,154.562 247.367,141.395 255,126.5C 265.248,112.086 278.748,107.919 295.5,114C 295.887,119.066 295.887,124.232 295.5,129.5C 286.347,126.774 278.513,128.774 272,135.5C 269.759,140.624 270.259,145.457 273.5,150C 277.915,153.553 281.915,153.22 285.5,149C 282.274,147.801 278.941,147.301 275.5,147.5C 275.207,143.563 275.54,139.73 276.5,136C 284.453,134.777 292.453,134.277 300.5,134.5C 300.175,142.352 300.508,150.018 301.5,157.5 Z"/></g>
<g><path style="opacity:0.992" fill="#787878" d="M 99.5,121.5 C 99.5,119.167 99.5,116.833 99.5,114.5C 93.642,114.178 87.9753,114.511 82.5,115.5C 81.9569,115.44 81.6236,115.107 81.5,114.5C 87.7985,113.504 94.1318,113.17 100.5,113.5C 100.806,116.385 100.473,119.052 99.5,121.5 Z"/></g>
<g><path style="opacity:1" fill="#3a3a3a" d="M 178.5,114.5 C 177.791,115.404 176.791,115.737 175.5,115.5C 175.5,119.167 175.5,122.833 175.5,126.5C 174.681,123.695 174.181,120.695 174,117.5C 169.367,125.268 164.867,133.101 160.5,141C 164.7,148.566 169.033,156.066 173.5,163.5C 167.966,165.4 162.466,167.4 157,169.5C 154.588,164.341 151.921,159.341 149,154.5C 146.246,159.008 143.746,163.674 141.5,168.5C 140.833,168.833 140.167,169.167 139.5,169.5C 135.21,167.903 130.876,166.403 126.5,165C 125.09,164.632 124.09,163.799 123.5,162.5C 128.167,155.167 132.833,147.833 137.5,140.5C 133.04,133.082 128.707,125.582 124.5,118C 129.831,116.124 135.331,114.624 141,113.5C 144.884,116.905 147.55,121.238 149,126.5C 151.421,122.66 153.588,118.66 155.5,114.5C 163.296,114.116 170.963,114.116 178.5,114.5 Z"/></g>
<g><path style="opacity:1" fill="#393939" d="M 99.5,121.5 C 98.1066,137.494 96.7733,153.494 95.5,169.5C 90.213,170.342 84.8797,170.676 79.5,170.5C 79.6621,168.473 79.4955,166.473 79,164.5C 78.2828,165.044 77.7828,165.711 77.5,166.5C 69.1978,169.903 62.3645,167.903 57,160.5C 55.3921,157.618 54.0587,154.618 53,151.5C 51.9766,139.723 52.6433,128.057 55,116.5C 58.3936,115.544 61.8936,115.211 65.5,115.5C 68.5,116.167 71.5,116.833 74.5,117.5C 72.3566,125.861 71.0233,134.361 70.5,143C 70.6667,145.5 70.8333,148 71,150.5C 72.916,153.033 74.916,153.033 77,150.5C 78.3989,147.637 79.3989,144.637 80,141.5C 80.9994,132.835 81.8327,124.169 82.5,115.5C 87.9753,114.511 93.642,114.178 99.5,114.5C 99.5,116.833 99.5,119.167 99.5,121.5 Z"/></g>
<g><path style="opacity:1" fill="#3a3a3a" d="M 121.5,163.5 C 120.566,164.568 120.232,165.901 120.5,167.5C 118.901,167.232 117.568,167.566 116.5,168.5C 112.182,168.697 108.015,168.697 104,168.5C 103.075,150.51 102.575,132.51 102.5,114.5C 109.823,113.715 117.156,113.548 124.5,114C 123.205,130.427 122.205,146.927 121.5,163.5 Z"/></g>
<g><path style="opacity:1" fill="#383838" d="M 178.5,114.5 C 180.167,114.5 181.833,114.5 183.5,114.5C 187.5,114.5 191.5,114.5 195.5,114.5C 195.5,117.833 195.5,121.167 195.5,124.5C 195.299,139.195 194.632,153.862 193.5,168.5C 187.788,168.313 182.121,168.646 176.5,169.5C 175.677,155.183 175.344,140.849 175.5,126.5C 175.5,122.833 175.5,119.167 175.5,115.5C 176.791,115.737 177.791,115.404 178.5,114.5 Z"/></g>
<g><path style="opacity:0.922" fill="#a1a1a1" d="M 65.5,115.5 C 68.8984,115.18 72.2317,115.513 75.5,116.5C 75.3764,117.107 75.0431,117.44 74.5,117.5C 71.5,116.833 68.5,116.167 65.5,115.5 Z"/></g>
<g><path style="opacity:0.922" fill="#a1a1a1" d="M 183.5,114.5 C 187.634,113.515 191.968,113.182 196.5,113.5C 196.815,117.371 196.482,121.038 195.5,124.5C 195.5,121.167 195.5,117.833 195.5,114.5C 191.5,114.5 187.5,114.5 183.5,114.5 Z"/></g>
<g><path style="opacity:0.992" fill="#7f7f7f" d="M 31.5,147.5 C 32.8333,147.5 34.1667,147.5 35.5,147.5C 35.8432,149.483 35.1765,150.817 33.5,151.5C 33.8039,150.85 34.1373,150.183 34.5,149.5C 33.3984,148.824 32.3984,148.158 31.5,147.5 Z"/></g>
<g><path style="opacity:0.922" fill="#828282" d="M 226.5,161.5 C 226.5,163.167 226.5,164.833 226.5,166.5C 233.833,166.5 241.167,166.5 248.5,166.5C 241.018,167.492 233.352,167.825 225.5,167.5C 225.205,165.265 225.539,163.265 226.5,161.5 Z"/></g>
<g><path style="opacity:0.922" fill="#9d9d9d" d="M 121.5,163.5 C 121.5,165.167 121.5,166.833 121.5,168.5C 119.833,168.5 118.167,168.5 116.5,168.5C 117.568,167.566 118.901,167.232 120.5,167.5C 120.232,165.901 120.566,164.568 121.5,163.5 Z"/></g>
<g><path style="opacity:0.961" fill="#a2a2a2" d="M 79.5,170.5 C 79.5,170.833 79.5,171.167 79.5,171.5C 79.1667,171.5 78.8333,171.5 78.5,171.5C 78.7845,169.585 78.4511,167.919 77.5,166.5C 77.7828,165.711 78.2828,165.044 79,164.5C 79.4955,166.473 79.6621,168.473 79.5,170.5 Z"/></g>
</svg>
